<?xml version="1.0" encoding="utf-8"?>
<!-- Generator: Adobe Illustrator 23.1.1, SVG Export Plug-In . SVG Version: 6.00 Build 0)  -->
<svg version="1.1" id="Layer_1" xmlns="http://www.w3.org/2000/svg" xmlns:xlink="http://www.w3.org/1999/xlink" x="0px" y="0px"
	 viewBox="0 0 1920 1080" style="enable-background:new 0 0 1920 1080;" xml:space="preserve">
<style type="text/css">
	.st0{fill:#F2EABD;}
	.st1{fill:none;}
	.st2{fill:url(#SVGID_1_);}
	.st3{fill:#EF8A17;}
	.st4{fill:#EFBA65;}
</style>
<g id="logo_nav">
	<g>
		<path class="st0" d="M571.1,999h-15.7V841.6h15.7V999z M591.4,999h-15.7V841.6h15.7V999z M681.3,999h-15.7v-60.7h-69.7l7-15.7
			h78.5V999z M681.3,918.1h-76.7l7-15.7h54v-60.7h15.7V918.1z M701.5,999h-15.7V841.6h15.7V999z"/>
		<path class="st0" d="M845.4,999H710.5V841.6h134.9v15.7H726.3v125.9h119.2V999z M845.4,877.6h-98.9v24.7H823v15.7h-92.2v-56.2
			h114.7V877.6z M845.4,978.8H730.8v-56.2H823v15.7h-76.5v24.7h98.9V978.8z"/>
		<path class="st0" d="M989.4,999H854.4V841.6h15.7v141.7h119.2V999z M989.4,978.8H874.7V841.6h15.7v121.4h98.9V978.8z"/>
		<path class="st0" d="M1014.1,999h-15.7V841.6h15.7V999z M1034.3,999h-15.7V841.6h15.7V999z"/>
		<path class="st0" d="M1200.7,920.3c0,21.7-7.7,40.3-23,55.7c-15.4,15.4-33.9,23-55.7,23c-21.7,0-40.3-7.7-55.7-23
			c-15.4-15.4-23-33.9-23-55.7c0-21.7,7.7-40.3,23-55.7c15.4-15.4,33.9-23,55.7-23c21.7,0,40.3,7.7,55.7,23
			C1193,880,1200.7,898.6,1200.7,920.3z M1185,920.3c0-17.4-6.1-32.2-18.4-44.5c-12.3-12.3-27.1-18.4-44.5-18.4
			c-17.4,0-32.2,6.1-44.5,18.4c-12.3,12.3-18.4,27.1-18.4,44.5c0,17.4,6.1,32.2,18.4,44.5c12.3,12.3,27.1,18.4,44.5,18.4
			c17.4,0,32.2-6.1,44.5-18.4C1178.8,952.6,1185,937.7,1185,920.3z M1180.5,920.3c0,16.2-5.7,30-17.1,41.4
			c-11.4,11.4-25.2,17.1-41.4,17.1c-16,0-29.8-5.7-41.3-17.1c-11.5-11.4-17.2-25.2-17.2-41.4c0-16.2,5.7-30,17.2-41.4
			c11.5-11.4,25.2-17.1,41.3-17.1c16.2,0,30,5.7,41.4,17.1C1174.8,890.4,1180.5,904.1,1180.5,920.3z M1164.7,920.3
			c0-11.8-4.2-21.9-12.5-30.2c-8.3-8.3-18.4-12.5-30.2-12.5c-11.7,0-21.7,4.2-30.1,12.5c-8.4,8.3-12.6,18.4-12.6,30.2
			c0,11.8,4.2,21.9,12.6,30.2c8.4,8.3,18.4,12.5,30.1,12.5c11.8,0,21.9-4.2,30.2-12.5C1160.6,942.3,1164.7,932.2,1164.7,920.3z"/>
		<path class="st0" d="M1355.9,857.4h-97.8c-9,0-16.7,3.2-23,9.6c-6.4,6.4-9.6,14.1-9.6,23s3.2,16.7,9.6,23c6.4,6.4,14.1,9.6,23,9.6
			h49.5c7.8,0,14.4,2.7,19.9,8.2c5.5,5.5,8.2,12.1,8.2,19.9c0,7.8-2.7,14.4-8.2,19.9c-5.5,5.5-12.1,8.2-19.9,8.2h-97.8v-15.7h97.8
			c3.4,0,6.4-1.2,8.8-3.6c2.4-2.4,3.6-5.3,3.6-8.8c0-3.4-1.2-6.4-3.6-8.8c-2.4-2.4-5.3-3.6-8.8-3.6h-49.5
			c-13.3,0-24.7-4.7-34.2-14.2c-9.4-9.4-14.2-20.8-14.2-34.2c0-13.3,4.7-24.7,14.2-34.2c9.4-9.4,20.8-14.2,34.2-14.2h97.8V857.4z
			 M1355.9,950.7c0,13.3-4.7,24.7-14.2,34.2s-20.8,14.2-34.2,14.2h-97.8v-15.7h97.8c9,0,16.7-3.2,23-9.6c6.4-6.4,9.6-14.1,9.6-23
			c0-9-3.2-16.7-9.6-23c-6.4-6.4-14.1-9.6-23-9.6h-49.5c-7.8,0-14.4-2.7-19.9-8.2c-5.5-5.5-8.2-12.1-8.2-19.9
			c0-7.8,2.7-14.4,8.2-19.9c5.5-5.5,12.1-8.2,19.9-8.2h97.8v15.7h-97.8c-3.5,0-6.4,1.2-8.8,3.6c-2.4,2.4-3.6,5.3-3.6,8.8
			c0,3.5,1.2,6.4,3.6,8.8c2.4,2.4,5.3,3.6,8.8,3.6h49.5c13.3,0,24.7,4.7,34.2,14.2S1355.9,937.3,1355.9,950.7z"/>
	</g>
	<g>
		<path class="st0" d="M959.9,773.6c218.9,0,418.9,31.6,571.6,83.6c-132.4-81.9-339.2-134.6-571.6-134.6s-439.2,52.7-571.6,134.6
			C541,805.1,741,773.6,959.9,773.6z"/>
		<g>
			<path class="st1" d="M647.8,707.1C589.2,638.8,554,550.8,554,454.9C554,237,735.7,60.3,959.9,60.3s405.9,176.7,405.9,394.6
				c0,95.9-35.2,183.9-93.8,252.3"/>
			
				<radialGradient id="SVGID_1_" cx="933.1515" cy="460.3724" r="303.7526" gradientTransform="matrix(1.3363 0 0 1.299 -287.068 -143.1314)" gradientUnits="userSpaceOnUse">
				<stop  offset="0" style="stop-color:#F18A15"/>
				<stop  offset="0.2755" style="stop-color:#F08715"/>
				<stop  offset="0.4876" style="stop-color:#EE7D14"/>
				<stop  offset="0.6786" style="stop-color:#E96D12"/>
				<stop  offset="0.856" style="stop-color:#E35610"/>
				<stop  offset="1" style="stop-color:#DD3D0E"/>
			</radialGradient>
			<path class="st2" d="M959.9,60.3C735.7,60.3,554,237,554,454.9c0,95.9,35.2,183.9,93.8,252.3c53.3-13.5,110.5-23.7,170.5-29.9
				c82.3-101.9,131-242.8,131-399.2c0-2,0.1-24.7,0.1-49.7c-9,2.4-22,6.2-33.3,10.1c2-26.4,18.8-48.5,18.8-48.5s-2-54,25.4-97.1
				c27.3,43.1,25.4,97.1,25.4,97.1s16,21.1,18,47.5c-15-5.7-28.6-9-36.5-10.7c1.1,25.8,2.1,48.7,2.1,51.2
				c0,156.4,49.3,297.3,132,399.1c60.1,6.3,117.3,16.4,170.7,30c58.6-68.4,93.8-156.3,93.8-252.3C1365.8,237,1184.1,60.3,959.9,60.3
				z"/>
			<path class="st3" d="M967.2,226.8c-1.3-0.3-2.4-0.5-3.3-0.7c0.1,3.3,0.1,6.7,0.2,10c0,1.4,0,2.8,0,4.1c0,6,0.1,12.1,0.2,18.1
				c-0.1,6-0.2,12-0.2,18.1c0,155.9,42.8,296.9,111.8,398.4c8.5,0.7,17,1.5,25.4,2.4c-82.6-101.9-132-242.7-132-399.1
				C969.3,275.5,968.3,252.6,967.2,226.8z"/>
			<path class="st3" d="M955.6,262.8c0.1-4.5,0.1-9.1,0.1-13.6c0-7.5-0.1-14.9-0.3-22.4c-1.7,0.4-3.7,1-6,1.6
				c-0.1,25-0.1,47.7-0.1,49.7c0,156.4-48.7,297.3-131,399.2c8.5-0.9,17-1.7,25.6-2.4c69-101.5,111.8-242.5,111.8-398.4
				C955.8,271.8,955.7,267.3,955.6,262.8z"/>
			<path class="st4" d="M956.8,320.4c0.1-4,0.1-8,0.1-12c0-7.4-0.1-14.7-0.3-22c0-1.2,0-2.4,0-3.7c0-1.4,0-2.7,0-4.1h0v-52.1
				c-0.4,0.1-0.8,0.2-1.2,0.3c0.2,7.4,0.3,14.9,0.3,22.4c0,4.6,0,9.1-0.1,13.6c0.1,4.5,0.1,9.1,0.1,13.6
				c0,155.9-42.8,296.9-111.8,398.4c12.4-1,24.8-1.9,37.4-2.6c46.8-88.6,75.5-208.1,75.5-339.7C956.9,328.4,956.8,324.4,956.8,320.4
				z"/>
			<path class="st4" d="M964.3,258.3c-0.1-6-0.2-12-0.2-18.1c0-1.4,0-2.8,0-4.1c-0.1-3.3-0.2-6.6-0.2-10c-0.4-0.1-0.8-0.2-1.2-0.2
				v52.7h0c0,6.1,0.1,12.2,0.3,18.3c0,1.2,0,2.4,0,3.7c0,5.3,0.1,10.6,0.2,15.9c-0.1,5.3-0.2,10.6-0.2,15.9
				c0,131.6,28.7,251.1,75.5,339.7c12.6,0.7,25,1.6,37.4,2.6C1006.8,573.2,964,432.3,964,276.4C964,270.3,964.1,264.3,964.3,258.3z"
				/>
			<path class="st0" d="M963.1,316.5c-0.1-5.3-0.2-10.6-0.2-15.9c0-1.2,0-2.4,0-3.7c-0.1-6.1-0.2-12.1-0.3-18.3h0v-52.7
				c-1.5-0.3-2.4-0.4-2.4-0.4s-1.4,0.3-3.7,1v52.1h0c0,1.4,0,2.7,0,4.1c0,1.2,0,2.4,0,3.7c0.2,7.3,0.3,14.6,0.3,22c0,4,0,8-0.1,12
				c0.1,4,0.1,8,0.1,12c0,131.6-28.7,251.1-75.5,339.7c25.8-1.5,52-2.2,78.6-2.2s52.8,0.8,78.6,2.2
				c-46.8-88.6-75.5-208.1-75.5-339.7C962.9,327.1,963,321.8,963.1,316.5z"/>
			<path class="st0" d="M956.6,226.5c2.3-0.6,3.7-1,3.7-1s0.8,0.1,2.4,0.4c0.4,0.1,0.7,0.1,1.2,0.2c0.9,0.2,2.1,0.4,3.3,0.7
				c7.8,1.6,21.4,4.9,36.5,10.7c-2-26.4-18-47.5-18-47.5s2-54-25.4-97.1C933,136,935,190,935,190s-16.8,22.1-18.8,48.5
				c11.3-4,24.3-7.7,33.3-10.1c2.3-0.6,4.3-1.2,6-1.6C955.8,226.7,956.2,226.6,956.6,226.5z"/>
		</g>
	</g>
</g>
</svg>
